<svg xmlns:dc="http://purl.org/dc/elements/1.1/" xmlns:cc="http://creativecommons.org/ns#" xmlns:rdf="http://www.w3.org/1999/02/22-rdf-syntax-ns#" xmlns:svg="http://www.w3.org/2000/svg" xmlns="http://www.w3.org/2000/svg" viewBox="0 0 556.10669 317.57333" height="317.57333" width="556.10669" xml:space="preserve" id="svg2" version="1.1" xmlns:xlink="http://www.w3.org/1999/xlink">
 <metadata id="metadata8">
  <rdf:RDF>
   <cc:Work rdf:about="">
    <dc:format>
     image/svg+xml
    </dc:format>
    <dc:type rdf:resource="http://purl.org/dc/dcmitype/StillImage">
    </dc:type>
   </cc:Work>
  </rdf:RDF>
 </metadata>
 <defs id="defs6">
 </defs>
 <g transform="matrix(1.3333333,0,0,-1.3333333,0,317.57333)" id="g10">
  <g transform="scale(0.1)" id="g12">
   <path id="path14" style="fill:#5e0e56;fill-opacity:1;fill-rule:nonzero;stroke:none" d="M 548.34,1859.5 C 164.219,1778.48 -137.961,1337.57 65.2344,878.082 187.578,619.07 442.129,491.941 622.188,482.422 c 71.601,77.969 295.703,316.226 370.195,396.957 -300.801,0 -363.32,-7.598 -428.965,28.203 C 333.367,1033 330.105,1363.4 606.055,1463.08 c 159.511,49.8 388.398,-48.7 388.398,-308.76 0,-94.51 2.363,1.73 -1.484,-274.941 0,-124.559 0,-245.231 0,-369.828 136.891,0 265.521,0 402.411,0 0,11.75 0,563.429 0,677.579 0,379.6 -351.93,762.8 -847.04,672.37">
   </path>
   <path id="path16" style="fill:#5e0e56;fill-opacity:1;fill-rule:nonzero;stroke:none" d="m 2201.23,509.262 h 417.52 V 2381.77 H 2201.23 V 509.262">
   </path>
   <path id="path18" style="fill:#5e0e56;fill-opacity:1;fill-rule:nonzero;stroke:none" d="m 1581.44,509.262 h 417.72 V 2381.77 H 1581.44 V 509.262">
   </path>
   <path id="path20" style="fill:#5e0e56;fill-opacity:1;fill-rule:nonzero;stroke:none" d="m 3734.43,1856.48 -272.3,-824.55 -285.59,824.55 H 2740.12 L 3249.3,509.262 3039.12,-0.0117188 h 433.85 L 4170.84,1856.48 h -436.41">
   </path>
   <path id="path22" style="fill:#5e0e56;fill-opacity:1;fill-rule:nonzero;stroke:none" d="m 4023.77,533.082 c -67.6,0 -119.24,53.348 -119.24,123.859 0,69.161 51.64,122.329 119.24,122.329 66.78,0 118.48,-53.168 118.48,-122.329 0,-70.511 -51.7,-123.859 -118.48,-123.859 z m 0,267.379 c -79.1,0 -145.47,-62.102 -145.47,-143.52 0,-82.871 66.37,-145.05 145.47,-145.05 78.75,0 144.71,62.179 144.71,145.05 0,81.418 -65.96,143.52 -144.71,143.52">
   </path>
   <path id="path24" style="fill:#5e0e56;fill-opacity:1;fill-rule:nonzero;stroke:none" d="m 4021.11,665.801 h -27.4 v 53.558 h 34.69 c 17.75,0 37.09,-3.32 37.09,-25.738 0,-26.562 -21.29,-27.82 -44.38,-27.82 z m 70.61,26.609 c 0,32.352 -18.91,48.18 -59.08,48.18 h -65.28 V 572.02 h 26.35 v 72.621 h 27.77 l 45.98,-72.621 h 28.13 l -48.27,74.558 c 25.02,2.692 44.4,15.352 44.4,45.832">
   </path>
  </g>
 </g>
</svg>