<svg version="1.1" id="Layer_1" xmlns="http://www.w3.org/2000/svg" xmlns:xlink="http://www.w3.org/1999/xlink" x="0px" y="0px" viewBox="-331.8 67.5 152.5 139.8" style="enable-background:new -331.8 67.5 152.5 139.8;" xml:space="preserve">
 <style type="text/css">
  .st0{fill:#C8102E;}
 </style>
 <title>
  Group
 </title>
 <g id="Page-1">
  <g id="Confirmation" transform="translate(-46.000000, -34.000000)">
   <g id="Group" transform="translate(46.000000, 34.000000)">
    <g>
     <g id="Path_4_" transform="translate(16.676352, 0.000000)">
      <path class="st0" d="M-272.2,96.5c24.4,0,43.6,18.7,43.6,44.4c0,20.2-10.1,32.4-23.6,41.5l18.7,24.9
						c23.1-15.8,37.6-37.6,37.6-66.4c0-42.5-33.7-73.4-76.3-73.4s-76.3,31.1-76.3,73.4c0,28.8,14.5,50.6,37.6,66.4l18.7-24.9
						c-13.5-9.1-23.6-21.3-23.6-41.5C-315.6,115.2-296.6,96.5-272.2,96.5z">
      </path>
     </g>
    </g>
   </g>
  </g>
 </g>
</svg>